<?xml version="1.0" standalone="no"?><!DOCTYPE svg PUBLIC "-//W3C//DTD SVG 1.1//EN" "http://www.w3.org/Graphics/SVG/1.1/DTD/svg11.dtd"><svg t="1586696449980" class="icon" viewBox="0 0 1024 1024" version="1.1" xmlns="http://www.w3.org/2000/svg" p-id="7614" xmlns:xlink="http://www.w3.org/1999/xlink" width="128" height="128"><defs><style type="text/css"></style></defs><path d="M512 512m-512 0a512 512 0 1 0 1024 0 512 512 0 1 0-1024 0Z" fill="#15A3E9" p-id="7615" data-spm-anchor-id="a313x.7781069.0.i8" class="selected"></path><path d="M251.648 568.622545c-21.736727 51.2-25.274182 100.072727-7.819636 109.195637 12.055273 6.283636 30.929455-8.029091 48.593454-34.304 6.981818 28.625455 24.32 54.551273 49.058909 75.357091-25.949091 9.565091-42.891636 25.204364-42.891636 42.961454 0 29.137455 45.847273 52.712727 102.446545 52.712728 51.060364 0 93.323636-19.153455 101.143273-44.334546 2.094545-0.046545 10.146909-0.046545 12.171636 0 7.842909 25.134545 50.152727 44.334545 101.166546 44.334546 56.599273 0 102.446545-23.598545 102.446545-52.712728 0-17.710545-16.919273-33.396364-42.868363-42.961454 24.669091-20.829091 42.077091-46.731636 49.035636-75.357091 17.687273 26.274909 36.514909 40.587636 48.570182 34.304 17.454545-9.122909 14.033455-58.018909-7.796364-109.195637-17.105455-40.261818-40.285091-69.888-58.018909-76.427636 0.232727-2.56 0.372364-5.166545 0.372364-7.726545a77.963636 77.963636 0 0 0-11.706182-41.658182c0.139636-0.884364 0.139636-1.815273 0.139636-2.722909 0-7.168-1.722182-13.870545-4.608-19.665455C686.592 315.787636 618.472727 232.727273 508.276364 232.727273c-110.266182 0-178.408727 83.083636-182.853819 187.694545-2.932364 5.818182-4.608 12.544-4.608 19.665455 0 0.907636 0.046545 1.838545 0.093091 2.746182a78.429091 78.429091 0 0 0-11.636363 41.634909c0 2.56 0.093091 5.143273 0.302545 7.726545-17.594182 6.539636-40.866909 36.212364-57.925818 76.427636z" fill="#ffffff" p-id="7616" data-spm-anchor-id="a313x.7781069.0.i6" class="selected"></path></svg>