<?xml version="1.0" standalone="no"?><!DOCTYPE svg PUBLIC "-//W3C//DTD SVG 1.1//EN" "http://www.w3.org/Graphics/SVG/1.1/DTD/svg11.dtd"><svg t="1586694319567" class="icon" viewBox="0 0 1024 1024" version="1.1" xmlns="http://www.w3.org/2000/svg" p-id="3212" xmlns:xlink="http://www.w3.org/1999/xlink" width="128" height="128"><defs><style type="text/css"></style></defs><path d="M586.5554498016844 513.6567824341196c54.67401253899985-28.165397486556145 92.78010463023092-84.49619245966848 92.78015268355283-150.76768203745564 0-92.78010463023092-76.21223223578413-168.99238491933696-168.99238491933696-168.99238491933696s-168.99238491933696 76.21223223578413-168.99238491933696 168.99238491933696c0 66.27153763110915 38.10614014455301 122.60228455089951 92.78015268355283 150.76768203745564-96.09371755177787 31.478962354781114-164.02198956367747 122.60228455089951-164.0220376169996 228.63674476067413 0 11.597525092109354 9.94074265799687 19.881437262671785 19.88148531599374 19.881437262671785 11.597525092109354 0 19.881437262671785-9.94074265799687 19.881437262671785-19.881437262671785 0-111.00480751211214 89.46653976200588-200.47134727411807 200.47134727411807-200.47134727411807s200.47134727411807 89.46653976200588 200.47134727411807 200.47134727411807c0 11.597525092109354 9.94074265799687 19.881437262671785 19.881437262671785 19.881437262671785 11.597525092109354 0 19.881437262671785-9.94074265799687 19.881437262671785-19.881437262671785 0-106.03441215645267-69.5851024993342-197.15778240589313-164.02198956367747-228.63674476067413z m-203.78491214234293-150.76768203745564c0-71.24188493344658 57.98757740722482-127.57267990655895 127.57267990655895-127.57267990655895 71.24188493344658 0 127.57267990655895 57.98757740722482 127.57267990655895 127.57267990655895 0 71.24188493344658-57.98757740722482 127.57267990655895-127.57267990655895 127.57267990655895-71.24188493344658 0-127.57267990655895-57.98757740722482-127.57267990655895-127.57267990655895z" fill="#515151" p-id="3213"></path><path d="M828.4465020885739 195.55349791143692c-84.49619245966848-84.49619245966848-197.15778240589313-130.88624477478388-316.4465020885679-130.88624477478388s-231.95030962889928 46.39005231511546-316.4465020885679 130.88624477478388-130.88624477478388 197.15778240589313-130.88624477478388 316.4465020885679 46.39005231511546 231.95030962889928 130.88624477478388 316.4465020885679 197.15778240589313 130.88624477478388 316.4465020885679 130.88624477478388 231.95030962889928-46.39005231511546 316.4465020885679-130.88624477478388 130.88624477478388-197.15778240589313 130.88624477478388-316.4465020885679-46.39005231511546-231.95030962889928-130.88624477478388-316.4465020885679z m-316.4465020885679 720.7027615050284c-223.6663494050148 0-405.9130418505738-182.24669244555875-405.9130418505738-405.9130418505738s182.24669244555875-405.9130418505738 405.9130418505738-405.9130418505738 405.9130418505738 182.24669244555875 405.9130418505738 405.9130418505738-182.24669244555875 405.9130418505738-405.9130418505738 405.9130418505738z" fill="#515151" p-id="3214"></path></svg>