<?xml version="1.0" standalone="no"?><!DOCTYPE svg PUBLIC "-//W3C//DTD SVG 1.1//EN" "http://www.w3.org/Graphics/SVG/1.1/DTD/svg11.dtd"><svg t="1586696574176" class="icon" viewBox="0 0 1024 1024" version="1.1" xmlns="http://www.w3.org/2000/svg" p-id="11052" xmlns:xlink="http://www.w3.org/1999/xlink" width="128" height="128"><defs><style type="text/css"></style></defs><path d="M512 512m-512 0a512 512 0 1 0 1024 0 512 512 0 1 0-1024 0Z" fill="#38BA35" p-id="11053" data-spm-anchor-id="a313x.7781069.0.i30" class="selected"></path><path d="M380.5952 285.4912c-179.2 32-238.9248 234.4448-96.384 327.1168 7.808 5.12 7.808 4.4544-3.9168 39.4496l-10.0352 29.952 36.096-19.3536 36.096-19.3536 19.1744 4.6592a293.76 293.76 0 0 0 62.8992 8.5504h10.24l-3.5328-13.5936c-28.16-103.4496 69.12-205.9776 195.3792-205.9776h17.1264l-3.5328-12.288c-27.776-96.9216-144.8448-159.6416-259.6096-139.1616z m-15.6416 90.624a31.5648 31.5648 0 1 1-42.4192 8.7552 32.64 32.64 0 0 1 42.4192-8.7808z m152.576 0a31.3856 31.3856 0 1 1-31.8208-0.7424 34.2528 34.2528 0 0 1 31.8208 0.7168z m69.12 76.672c-88.7552 16.1792-150.3488 83.5328-146.816 160.9472 4.6592 103.6544 126.1568 175.104 242.816 143.0784l13.7728-3.712 29.0304 15.6416a170.5728 170.5728 0 0 0 29.7728 14.336 169.7536 169.7536 0 0 0-6.8864-24.9344c-9.2928-28.6464-9.4976-26.5984 2.9696-35.5328 140.2368-100.7104 17.0496-302.7712-164.736-269.8496z m-3.5328 83.5328a25.7536 25.7536 0 0 1 8.5504 27.7248 24.576 24.576 0 1 1-8.5504-27.7248z m124.288 2.2272a24.1664 24.1664 0 0 1-4.096 39.0656 24.3456 24.3456 0 1 1 4.096-39.0656z" fill="#ffffff" p-id="11054" data-spm-anchor-id="a313x.7781069.0.i28" class="selected"></path></svg>